<?xml version='1.0' encoding='utf-8'?>
<mlt title="Anonymous Submission" LC_NUMERIC="es_AR.UTF-8" producer="main_bin" version="6.20.0" root="/home/manuel/Syncthing/files/uns/2020/ihc/video">
 <profile frame_rate_num="30" sample_aspect_num="1" display_aspect_den="9" colorspace="709" progressive="1" description="HD 1080p 30 fps" display_aspect_num="16" frame_rate_den="1" width="1920" height="1080" sample_aspect_den="1"/>
 <producer id="producer1" in="00:00:00,000" out="00:00:10,300">
  <property name="length">00:00:10,333</property>
  <property name="eof">pause</property>
  <property name="resource">fatty.jpg</property>
  <property name="ttl">25</property>
  <property name="aspect_ratio">1</property>
  <property name="progressive">1</property>
  <property name="seekable">1</property>
  <property name="meta.media.width">804</property>
  <property name="meta.media.height">906</property>
  <property name="mlt_service">qimage</property>
  <property name="kdenlive:clipname"/>
  <property name="kdenlive:duration">00:00:05,000</property>
  <property name="kdenlive:id">2</property>
  <property name="kdenlive:file_size">77050</property>
  <property name="kdenlive:file_hash">f375e6527aac9abcf433ee7fa12f8bf8</property>
  <property name="kdenlive:folderid">-1</property>
  <property name="global_feed">1</property>
 </producer>
 <producer id="producer0" in="00:00:00,000" out="00:00:10,600">
  <property name="length">319</property>
  <property name="eof">pause</property>
  <property name="resource"/>
  <property name="progressive">1</property>
  <property name="aspect_ratio">1</property>
  <property name="seekable">1</property>
  <property name="mlt_service">kdenlivetitle</property>
  <property name="kdenlive:duration">150</property>
  <property name="kdenlive:clipname">Fatman GTK f...</property>
  <property name="xmldata">&lt;kdenlivetitle duration="150" LC_NUMERIC="fr_FR.UTF-8" width="808" height="906" out="149">
 &lt;item type="QGraphicsTextItem" z-index="0">
  &lt;position x="58" y="180">
   &lt;transform>1,0,0,0,1,0,0,0,1&lt;/transform>
  &lt;/position>
  &lt;content line-spacing="0" shadow="1;#64000000;3;7;7" font-underline="0" box-height="122" font-outline-color="255,255,255,255" font="FreeSans" letter-spacing="0" font-pixel-size="51" font-italic="0" alignment="4" font-weight="75" font-outline="0.7" box-width="685.453" font-color="0,0,0,255">Fatman
GTK front-end para Pacman&lt;/content>
 &lt;/item>
 &lt;startviewport rect="201,91.1,404,453"/>
 &lt;endviewport rect="0,0,808,906"/>
 &lt;background color="0,0,0,0"/>
&lt;/kdenlivetitle>
</property>
  <property name="kdenlive:folderid">-1</property>
  <property name="kdenlive:id">3</property>
  <property name="kdenlive:file_hash">d7b7961b3e5fa28370533c6984026637</property>
  <property name="force_reload">0</property>
  <property name="global_feed">1</property>
  <property name="meta.media.width">808</property>
  <property name="meta.media.height">906</property>
 </producer>
 <producer title="Anonymous Submission" id="producer2" in="00:00:00,000" out="00:02:16,600">
  <property name="length">4099</property>
  <property name="eof">pause</property>
  <property name="resource">Sneaky Snitch.mp3</property>
  <property name="meta.media.nb_streams">1</property>
  <property name="meta.media.0.stream.type">audio</property>
  <property name="meta.media.0.codec.sample_fmt">fltp</property>
  <property name="meta.media.0.codec.sample_rate">44100</property>
  <property name="meta.media.0.codec.channels">2</property>
  <property name="meta.media.0.codec.name">mp3float</property>
  <property name="meta.media.0.codec.long_name">MP3 (MPEG audio layer 3)</property>
  <property name="meta.media.0.codec.bit_rate">320000</property>
  <property name="meta.attr.iTunPGAP.markup">0</property>
  <property name="meta.attr.encoded_by.markup">iTunes 10.0.1</property>
  <property name="meta.attr.iTunNORM.markup"> 00000092 0000007B 000016BA 00000B9B 000025C1 00007C2F 00006DBD 00007E86 00007678 0001563E</property>
  <property name="meta.attr.iTunSMPB.markup"> 00000000 00000210 000009C5 00000000005BE32B 00000000 00534249 00000000 00000000 00000000 00000000 00000000 00000000</property>
  <property name="meta.attr.artist.markup">Kevin MacLeod</property>
  <property name="meta.attr.TCM.markup">Kevin MacLeod</property>
  <property name="meta.attr.album.markup">Royalty Free</property>
  <property name="meta.attr.title.markup">Sneaky Snitch</property>
  <property name="meta.attr.date.markup">2010</property>
  <property name="seekable">1</property>
  <property name="audio_index">0</property>
  <property name="video_index">-1</property>
  <property name="mute_on_pause">1</property>
  <property name="mlt_service">avformat</property>
  <property name="kdenlive:clipname"/>
  <property name="kdenlive:folderid">-1</property>
  <property name="kdenlive:id">4</property>
  <property name="kdenlive:file_size">5466943</property>
  <property name="kdenlive:file_hash">cb32dd04290ec9be43a3ddc5f0354edd</property>
  <property name="global_feed">1</property>
 </producer>
 <producer id="producer7" in="00:00:00,000" out="00:00:12,500">
  <property name="length">00:00:12,533</property>
  <property name="eof">pause</property>
  <property name="resource">Proyecto_assets/title/TitleFileName-2.svg</property>
  <property name="ttl">25</property>
  <property name="aspect_ratio">1</property>
  <property name="progressive">1</property>
  <property name="seekable">1</property>
  <property name="meta.media.width">1920</property>
  <property name="meta.media.height">1080</property>
  <property name="mlt_service">qimage</property>
  <property name="kdenlive:clipname"/>
  <property name="kdenlive:duration">00:00:05,000</property>
  <property name="kdenlive:folderid">-1</property>
  <property name="kdenlive:id">5</property>
  <property name="kdenlive:file_size">18414</property>
  <property name="kdenlive:file_hash">82add5de1ceb31d26e2395ebda073113</property>
  <property name="global_feed">1</property>
 </producer>
 <producer id="producer3" in="00:00:00,000" out="00:03:56,200">
  <property name="length">7087</property>
  <property name="eof">pause</property>
  <property name="resource">/home/manuel/2020-07-21 15-29-14.mkv</property>
  <property name="audio_index">1</property>
  <property name="video_index">0</property>
  <property name="mute_on_pause">0</property>
  <property name="mlt_service">avformat-novalidate</property>
  <property name="seekable">1</property>
  <property name="aspect_ratio">1</property>
  <property name="kdenlive:clipname"/>
  <property name="kdenlive:folderid">-1</property>
  <property name="kdenlive:id">6</property>
  <property name="kdenlive:file_size">7376913</property>
  <property name="kdenlive:file_hash">9921d260c88603010f15f16eef92fa97</property>
  <property name="global_feed">1</property>
  <property name="meta.media.nb_streams">2</property>
  <property name="meta.media.0.stream.type">video</property>
  <property name="meta.media.0.stream.frame_rate">30</property>
  <property name="meta.media.0.stream.sample_aspect_ratio">0</property>
  <property name="meta.media.0.codec.width">816</property>
  <property name="meta.media.0.codec.height">460</property>
  <property name="meta.media.0.codec.rotate">0</property>
  <property name="meta.media.0.codec.frame_rate">30</property>
  <property name="meta.media.0.codec.pix_fmt">yuv420p</property>
  <property name="meta.media.0.codec.sample_aspect_ratio">0</property>
  <property name="meta.media.0.codec.colorspace">601</property>
  <property name="meta.media.0.codec.name">h264</property>
  <property name="meta.media.0.codec.long_name">H.264 / AVC / MPEG-4 AVC / MPEG-4 part 10</property>
  <property name="meta.media.0.codec.bit_rate">0</property>
  <property name="meta.attr.0.stream.DURATION.markup">00:03:56.233000000</property>
  <property name="meta.media.1.stream.type">audio</property>
  <property name="meta.media.1.codec.sample_fmt">fltp</property>
  <property name="meta.media.1.codec.sample_rate">44100</property>
  <property name="meta.media.1.codec.channels">2</property>
  <property name="meta.media.1.codec.name">aac</property>
  <property name="meta.media.1.codec.long_name">AAC (Advanced Audio Coding)</property>
  <property name="meta.media.1.codec.bit_rate">0</property>
  <property name="meta.attr.1.stream.title.markup">simple_aac_recording</property>
  <property name="meta.attr.1.stream.DURATION.markup">00:03:56.054000000</property>
  <property name="meta.attr.ENCODER.markup">Lavf58.45.100</property>
  <property name="meta.media.sample_aspect_num">1</property>
  <property name="meta.media.sample_aspect_den">1</property>
  <property name="meta.media.frame_rate_num">30</property>
  <property name="meta.media.frame_rate_den">1</property>
  <property name="meta.media.colorspace">601</property>
  <property name="meta.media.color_trc">2</property>
  <property name="meta.media.width">816</property>
  <property name="meta.media.height">460</property>
  <property name="meta.media.color_range">mpeg</property>
 </producer>
 <producer title="Anonymous Submission" id="producer4" in="00:00:00,000" out="00:03:56,100">
  <property name="length">7084</property>
  <property name="eof">pause</property>
  <property name="resource">/home/manuel/audio.mp3</property>
  <property name="meta.media.nb_streams">1</property>
  <property name="meta.media.0.stream.type">audio</property>
  <property name="meta.media.0.codec.sample_fmt">fltp</property>
  <property name="meta.media.0.codec.sample_rate">44100</property>
  <property name="meta.media.0.codec.channels">2</property>
  <property name="meta.media.0.codec.name">mp3float</property>
  <property name="meta.media.0.codec.long_name">MP3 (MPEG audio layer 3)</property>
  <property name="meta.media.0.codec.bit_rate">186299</property>
  <property name="meta.attr.0.stream.encoder.markup">LAME3.100</property>
  <property name="seekable">1</property>
  <property name="audio_index">0</property>
  <property name="video_index">-1</property>
  <property name="mute_on_pause">1</property>
  <property name="mlt_service">avformat</property>
  <property name="kdenlive:clipname"/>
  <property name="kdenlive:folderid">-1</property>
  <property name="kdenlive:id">7</property>
  <property name="kdenlive:file_size">5498636</property>
  <property name="kdenlive:file_hash">234e27ab1a8a8109bccd4f2d270b5dd9</property>
  <property name="global_feed">1</property>
 </producer>
 <producer title="Anonymous Submission" id="producer6" in="00:00:00,000" out="00:03:11,600">
  <property name="length">5749</property>
  <property name="eof">pause</property>
  <property name="resource">/home/manuel/2020-07-21 20-44-04.mkv</property>
  <property name="audio_index">1</property>
  <property name="video_index">0</property>
  <property name="mute_on_pause">0</property>
  <property name="mlt_service">avformat-novalidate</property>
  <property name="seekable">1</property>
  <property name="aspect_ratio">1</property>
  <property name="kdenlive:clipname"/>
  <property name="kdenlive:folderid">-1</property>
  <property name="kdenlive:id">8</property>
  <property name="kdenlive:file_size">8096205</property>
  <property name="kdenlive:file_hash">1be71f73ca33f7376249380b3ac74ead</property>
  <property name="global_feed">1</property>
  <property name="meta.media.nb_streams">2</property>
  <property name="meta.media.0.stream.type">video</property>
  <property name="meta.media.0.stream.frame_rate">30</property>
  <property name="meta.media.0.stream.sample_aspect_ratio">0</property>
  <property name="meta.media.0.codec.width">1920</property>
  <property name="meta.media.0.codec.height">1080</property>
  <property name="meta.media.0.codec.rotate">0</property>
  <property name="meta.media.0.codec.frame_rate">30</property>
  <property name="meta.media.0.codec.pix_fmt">yuv420p</property>
  <property name="meta.media.0.codec.sample_aspect_ratio">0</property>
  <property name="meta.media.0.codec.colorspace">709</property>
  <property name="meta.media.0.codec.name">h264</property>
  <property name="meta.media.0.codec.long_name">H.264 / AVC / MPEG-4 AVC / MPEG-4 part 10</property>
  <property name="meta.media.0.codec.bit_rate">0</property>
  <property name="meta.attr.0.stream.DURATION.markup">00:03:11.633000000</property>
  <property name="meta.media.1.stream.type">audio</property>
  <property name="meta.media.1.codec.sample_fmt">fltp</property>
  <property name="meta.media.1.codec.sample_rate">44100</property>
  <property name="meta.media.1.codec.channels">2</property>
  <property name="meta.media.1.codec.name">aac</property>
  <property name="meta.media.1.codec.long_name">AAC (Advanced Audio Coding)</property>
  <property name="meta.media.1.codec.bit_rate">0</property>
  <property name="meta.attr.1.stream.title.markup">simple_aac_recording</property>
  <property name="meta.attr.1.stream.DURATION.markup">00:03:11.495000000</property>
  <property name="meta.attr.ENCODER.markup">Lavf58.45.100</property>
  <property name="meta.media.sample_aspect_num">1</property>
  <property name="meta.media.sample_aspect_den">1</property>
  <property name="meta.media.frame_rate_num">30</property>
  <property name="meta.media.frame_rate_den">1</property>
  <property name="meta.media.colorspace">709</property>
  <property name="meta.media.color_trc">2</property>
  <property name="meta.media.width">1920</property>
  <property name="meta.media.height">1080</property>
  <property name="meta.media.color_range">mpeg</property>
 </producer>
 <producer title="Anonymous Submission" id="producer5" in="00:00:00,000" out="00:03:51,667">
  <property name="length">6951</property>
  <property name="eof">pause</property>
  <property name="resource">/home/manuel/2020-07-21 22-30-56.mkv</property>
  <property name="audio_index">1</property>
  <property name="video_index">0</property>
  <property name="mute_on_pause">0</property>
  <property name="mlt_service">avformat-novalidate</property>
  <property name="seekable">1</property>
  <property name="aspect_ratio">1</property>
  <property name="kdenlive:clipname"/>
  <property name="kdenlive:folderid">-1</property>
  <property name="kdenlive:id">9</property>
  <property name="kdenlive:file_size">13043515</property>
  <property name="kdenlive:file_hash">a1d16419ee8422a3239f222f328a264d</property>
  <property name="global_feed">1</property>
  <property name="meta.media.nb_streams">2</property>
  <property name="meta.media.0.stream.type">video</property>
  <property name="meta.media.0.stream.frame_rate">30</property>
  <property name="meta.media.0.stream.sample_aspect_ratio">0</property>
  <property name="meta.media.0.codec.width">1920</property>
  <property name="meta.media.0.codec.height">1080</property>
  <property name="meta.media.0.codec.rotate">0</property>
  <property name="meta.media.0.codec.frame_rate">30</property>
  <property name="meta.media.0.codec.pix_fmt">yuv420p</property>
  <property name="meta.media.0.codec.sample_aspect_ratio">0</property>
  <property name="meta.media.0.codec.colorspace">709</property>
  <property name="meta.media.0.codec.name">h264</property>
  <property name="meta.media.0.codec.long_name">H.264 / AVC / MPEG-4 AVC / MPEG-4 part 10</property>
  <property name="meta.media.0.codec.bit_rate">0</property>
  <property name="meta.attr.0.stream.DURATION.markup">00:03:51.700000000</property>
  <property name="meta.media.1.stream.type">audio</property>
  <property name="meta.media.1.codec.sample_fmt">fltp</property>
  <property name="meta.media.1.codec.sample_rate">44100</property>
  <property name="meta.media.1.codec.channels">2</property>
  <property name="meta.media.1.codec.name">aac</property>
  <property name="meta.media.1.codec.long_name">AAC (Advanced Audio Coding)</property>
  <property name="meta.media.1.codec.bit_rate">0</property>
  <property name="meta.attr.1.stream.title.markup">simple_aac_recording</property>
  <property name="meta.attr.1.stream.DURATION.markup">00:03:51.549000000</property>
  <property name="meta.attr.ENCODER.markup">Lavf58.45.100</property>
  <property name="meta.media.sample_aspect_num">1</property>
  <property name="meta.media.sample_aspect_den">1</property>
  <property name="meta.media.frame_rate_num">30</property>
  <property name="meta.media.frame_rate_den">1</property>
  <property name="meta.media.colorspace">709</property>
  <property name="meta.media.color_trc">2</property>
  <property name="meta.media.width">1920</property>
  <property name="meta.media.height">1080</property>
  <property name="meta.media.color_range">mpeg</property>
 </producer>
 <playlist id="main_bin">
  <property name="kdenlive:docproperties.activeTrack">2</property>
  <property name="kdenlive:docproperties.audioTarget">-1</property>
  <property name="kdenlive:docproperties.decimalPoint">,</property>
  <property name="kdenlive:docproperties.disablepreview">0</property>
  <property name="kdenlive:docproperties.documentid">1595004975711</property>
  <property name="kdenlive:docproperties.enableTimelineZone">0</property>
  <property name="kdenlive:docproperties.enableexternalproxy">0</property>
  <property name="kdenlive:docproperties.enableproxy">0</property>
  <property name="kdenlive:docproperties.externalproxyparams"/>
  <property name="kdenlive:docproperties.generateimageproxy">0</property>
  <property name="kdenlive:docproperties.generateproxy">0</property>
  <property name="kdenlive:docproperties.groups">[
]
</property>
  <property name="kdenlive:docproperties.kdenliveversion">20.04.3</property>
  <property name="kdenlive:docproperties.position">506</property>
  <property name="kdenlive:docproperties.previewextension"/>
  <property name="kdenlive:docproperties.previewparameters"/>
  <property name="kdenlive:docproperties.profile">atsc_1080p_30</property>
  <property name="kdenlive:docproperties.proxyextension"/>
  <property name="kdenlive:docproperties.proxyimageminsize">2000</property>
  <property name="kdenlive:docproperties.proxyimagesize">800</property>
  <property name="kdenlive:docproperties.proxyminsize">1000</property>
  <property name="kdenlive:docproperties.proxyparams"/>
  <property name="kdenlive:docproperties.renderaudioquality">192</property>
  <property name="kdenlive:docproperties.rendercategory">Generic (HD for web, mobile devices...)</property>
  <property name="kdenlive:docproperties.renderendguide">-1</property>
  <property name="kdenlive:docproperties.renderexportaudio">0</property>
  <property name="kdenlive:docproperties.renderfield">0</property>
  <property name="kdenlive:docproperties.renderguide">0</property>
  <property name="kdenlive:docproperties.renderplay">0</property>
  <property name="kdenlive:docproperties.renderprofile">MP4 - the dominating format (H264/AAC)</property>
  <property name="kdenlive:docproperties.renderquality">23</property>
  <property name="kdenlive:docproperties.renderratio">1</property>
  <property name="kdenlive:docproperties.renderrescale">0</property>
  <property name="kdenlive:docproperties.renderrescaleheight">453</property>
  <property name="kdenlive:docproperties.renderrescalewidth">805</property>
  <property name="kdenlive:docproperties.renderscanning">0</property>
  <property name="kdenlive:docproperties.renderspeed">2</property>
  <property name="kdenlive:docproperties.renderstartguide">-1</property>
  <property name="kdenlive:docproperties.rendertcoverlay">0</property>
  <property name="kdenlive:docproperties.rendertctype">0</property>
  <property name="kdenlive:docproperties.rendertwopass">0</property>
  <property name="kdenlive:docproperties.renderurl">/home/manuel/Videos/ProyectoK.mp4</property>
  <property name="kdenlive:docproperties.renderzone">0</property>
  <property name="kdenlive:docproperties.scrollPos">0</property>
  <property name="kdenlive:docproperties.seekOffset">30000</property>
  <property name="kdenlive:docproperties.version">0.99</property>
  <property name="kdenlive:docproperties.verticalzoom">1</property>
  <property name="kdenlive:docproperties.videoTarget">-1</property>
  <property name="kdenlive:docproperties.zonein">0</property>
  <property name="kdenlive:docproperties.zoneout">75</property>
  <property name="kdenlive:docproperties.zoom">11</property>
  <property name="kdenlive:documentnotes"/>
  <property name="xml_retain">1</property>
  <entry producer="producer1" in="00:00:00,000" out="00:00:10,300"/>
  <entry producer="producer0" in="00:00:00,000" out="00:00:10,600"/>
  <entry producer="producer2" in="00:00:00,000" out="00:02:16,600"/>
  <entry producer="producer7" in="00:00:00,000" out="00:00:12,500"/>
  <entry producer="producer3" in="00:00:00,000" out="00:03:56,200"/>
  <entry producer="producer4" in="00:00:00,000" out="00:03:56,100"/>
  <entry producer="producer6" in="00:00:00,000" out="00:03:11,600"/>
  <entry producer="producer5" in="00:00:00,000" out="00:03:51,667"/>
 </playlist>
 <producer id="black_track" in="00:00:00,000" out="00:19:37,633">
  <property name="length">2147483647</property>
  <property name="eof">continue</property>
  <property name="resource">black</property>
  <property name="aspect_ratio">1</property>
  <property name="mlt_service">color</property>
  <property name="mlt_image_format">rgb24a</property>
  <property name="set.test_audio">0</property>
 </producer>
 <producer title="Anonymous Submission" id="producer8" in="00:00:00,000" out="00:02:16,600">
  <property name="length">4099</property>
  <property name="eof">pause</property>
  <property name="resource">Sneaky Snitch.mp3</property>
  <property name="audio_index">0</property>
  <property name="video_index">-1</property>
  <property name="mute_on_pause">0</property>
  <property name="mlt_service">avformat-novalidate</property>
  <property name="meta.media.nb_streams">1</property>
  <property name="meta.media.0.stream.type">audio</property>
  <property name="meta.media.0.codec.sample_fmt">fltp</property>
  <property name="meta.media.0.codec.sample_rate">44100</property>
  <property name="meta.media.0.codec.channels">2</property>
  <property name="meta.media.0.codec.name">mp3float</property>
  <property name="meta.media.0.codec.long_name">MP3 (MPEG audio layer 3)</property>
  <property name="meta.media.0.codec.bit_rate">320000</property>
  <property name="meta.attr.iTunPGAP.markup">0</property>
  <property name="meta.attr.encoded_by.markup">iTunes 10.0.1</property>
  <property name="meta.attr.iTunNORM.markup"> 00000092 0000007B 000016BA 00000B9B 000025C1 00007C2F 00006DBD 00007E86 00007678 0001563E</property>
  <property name="meta.attr.iTunSMPB.markup"> 00000000 00000210 000009C5 00000000005BE32B 00000000 00534249 00000000 00000000 00000000 00000000 00000000 00000000</property>
  <property name="meta.attr.artist.markup">Kevin MacLeod</property>
  <property name="meta.attr.TCM.markup">Kevin MacLeod</property>
  <property name="meta.attr.album.markup">Royalty Free</property>
  <property name="meta.attr.title.markup">Sneaky Snitch</property>
  <property name="meta.attr.date.markup">2010</property>
  <property name="seekable">1</property>
  <property name="kdenlive:clipname"/>
  <property name="kdenlive:folderid">-1</property>
  <property name="kdenlive:id">4</property>
  <property name="kdenlive:file_size">5466943</property>
  <property name="kdenlive:file_hash">cb32dd04290ec9be43a3ddc5f0354edd</property>
  <property name="global_feed">1</property>
  <property name="xml">was here</property>
  <property name="set.test_audio">0</property>
  <property name="set.test_image">1</property>
 </producer>
 <playlist id="playlist0">
  <property name="kdenlive:audio_track">1</property>
  <entry producer="producer8" in="00:00:00,000" out="00:02:12,367">
   <property name="kdenlive:id">4</property>
   <filter id="filter0">
    <property name="window">75</property>
    <property name="max_gain">20dB</property>
    <property name="level">00:00:00,000|=0;00:00:09,867=0;00:00:11,167=-10</property>
    <property name="mlt_service">volume</property>
    <property name="kdenlive_id">volume</property>
    <property name="kdenlive:collapsed">0</property>
   </filter>
  </entry>
  <entry producer="producer8" in="00:00:55,100" out="00:01:40,300">
   <property name="kdenlive:id">4</property>
   <filter id="filter1">
    <property name="window">75</property>
    <property name="max_gain">20dB</property>
    <property name="level">00:00:55,100|=-10;00:01:28,300=-10;00:01:33,133=-10;00:01:39,800=-26,05;00:01:40,300=-71;00:01:41,400=-100</property>
    <property name="mlt_service">volume</property>
    <property name="kdenlive_id">volume</property>
    <property name="kdenlive:collapsed">0</property>
   </filter>
  </entry>
  <filter id="filter2">
   <property name="window">75</property>
   <property name="max_gain">20dB</property>
   <property name="mlt_service">volume</property>
   <property name="internal_added">237</property>
   <property name="disable">1</property>
  </filter>
  <filter id="filter3">
   <property name="channel">-1</property>
   <property name="mlt_service">panner</property>
   <property name="internal_added">237</property>
   <property name="start">0,5</property>
   <property name="disable">1</property>
  </filter>
  <filter id="filter4" out="00:02:57,633">
   <property name="window">75</property>
   <property name="max_gain">20dB</property>
   <property name="level">00:00:00,000=0</property>
   <property name="mlt_service">volume</property>
   <property name="kdenlive_id">volume</property>
   <property name="kdenlive:collapsed">0</property>
  </filter>
 </playlist>
 <playlist id="playlist1"/>
 <tractor id="tractor0" in="00:00:00,000" out="00:02:57,600">
  <property name="kdenlive:audio_track">1</property>
  <property name="kdenlive:trackheight">69</property>
  <property name="kdenlive:collapsed">0</property>
  <property name="kdenlive:thumbs_format"/>
  <property name="kdenlive:audio_rec"/>
  <property name="kdenlive:timeline_active">1</property>
  <track hide="video" producer="playlist0"/>
  <track hide="both" producer="playlist1"/>
  <filter id="filter5">
   <property name="iec_scale">0</property>
   <property name="mlt_service">audiolevel</property>
   <property name="disable">1</property>
  </filter>
 </tractor>
 <producer title="Anonymous Submission" id="producer9" in="00:00:00,000" out="00:03:56,100">
  <property name="length">7084</property>
  <property name="eof">pause</property>
  <property name="resource">/home/manuel/audio.mp3</property>
  <property name="audio_index">0</property>
  <property name="video_index">-1</property>
  <property name="mute_on_pause">0</property>
  <property name="mlt_service">avformat-novalidate</property>
  <property name="meta.media.nb_streams">1</property>
  <property name="meta.media.0.stream.type">audio</property>
  <property name="meta.media.0.codec.sample_fmt">fltp</property>
  <property name="meta.media.0.codec.sample_rate">44100</property>
  <property name="meta.media.0.codec.channels">2</property>
  <property name="meta.media.0.codec.name">mp3float</property>
  <property name="meta.media.0.codec.long_name">MP3 (MPEG audio layer 3)</property>
  <property name="meta.media.0.codec.bit_rate">186299</property>
  <property name="meta.attr.0.stream.encoder.markup">LAME3.100</property>
  <property name="seekable">1</property>
  <property name="kdenlive:clipname"/>
  <property name="kdenlive:folderid">-1</property>
  <property name="kdenlive:id">7</property>
  <property name="kdenlive:file_size">5498636</property>
  <property name="kdenlive:file_hash">234e27ab1a8a8109bccd4f2d270b5dd9</property>
  <property name="global_feed">1</property>
  <property name="xml">was here</property>
  <property name="set.test_audio">0</property>
  <property name="set.test_image">1</property>
 </producer>
 <playlist id="playlist2">
  <property name="kdenlive:audio_track">1</property>
  <blank length="00:00:11,167"/>
  <entry producer="producer9" in="00:00:18,633" out="00:00:33,167">
   <property name="kdenlive:id">7</property>
  </entry>
  <entry producer="producer9" in="00:00:34,233" out="00:00:50,033">
   <property name="kdenlive:id">7</property>
  </entry>
  <entry producer="producer9" in="00:00:55,267" out="00:01:16,700">
   <property name="kdenlive:id">7</property>
  </entry>
  <entry producer="producer9" in="00:01:22,033" out="00:01:23,700">
   <property name="kdenlive:id">7</property>
  </entry>
  <entry producer="producer9" in="00:01:49,200" out="00:01:56,667">
   <property name="kdenlive:id">7</property>
  </entry>
  <entry producer="producer9" in="00:02:04,767" out="00:02:25,633">
   <property name="kdenlive:id">7</property>
  </entry>
  <entry producer="producer9" in="00:02:28,833" out="00:02:45,800">
   <property name="kdenlive:id">7</property>
  </entry>
  <entry producer="producer9" in="00:02:46,800" out="00:02:55,067">
   <property name="kdenlive:id">7</property>
  </entry>
  <entry producer="producer9" in="00:02:56,200" out="00:03:02,467">
   <property name="kdenlive:id">7</property>
  </entry>
  <entry producer="producer9" in="00:03:02,867" out="00:03:16,333">
   <property name="kdenlive:id">7</property>
  </entry>
  <entry producer="producer9" in="00:03:22,233" out="00:03:48,700">
   <property name="kdenlive:id">7</property>
  </entry>
  <filter id="filter6">
   <property name="window">75</property>
   <property name="max_gain">20dB</property>
   <property name="mlt_service">volume</property>
   <property name="internal_added">237</property>
   <property name="disable">1</property>
  </filter>
  <filter id="filter7">
   <property name="channel">-1</property>
   <property name="mlt_service">panner</property>
   <property name="internal_added">237</property>
   <property name="start">0,5</property>
   <property name="disable">1</property>
  </filter>
 </playlist>
 <playlist id="playlist3"/>
 <tractor id="tractor1" in="00:00:00,000" out="00:02:44,700">
  <property name="kdenlive:audio_track">1</property>
  <property name="kdenlive:trackheight">69</property>
  <property name="kdenlive:collapsed">0</property>
  <property name="kdenlive:thumbs_format"/>
  <property name="kdenlive:audio_rec"/>
  <property name="kdenlive:timeline_active">1</property>
  <track hide="video" producer="playlist2"/>
  <track hide="both" producer="playlist3"/>
  <filter id="filter8">
   <property name="iec_scale">0</property>
   <property name="mlt_service">audiolevel</property>
   <property name="disable">1</property>
  </filter>
 </tractor>
 <producer title="Anonymous Submission" id="producer10" in="00:00:00,000" out="00:03:11,600">
  <property name="length">5749</property>
  <property name="eof">pause</property>
  <property name="resource">/home/manuel/2020-07-21 20-44-04.mkv</property>
  <property name="audio_index">1</property>
  <property name="video_index">0</property>
  <property name="mute_on_pause">0</property>
  <property name="mlt_service">avformat-novalidate</property>
  <property name="seekable">1</property>
  <property name="aspect_ratio">1</property>
  <property name="kdenlive:clipname"/>
  <property name="kdenlive:folderid">-1</property>
  <property name="kdenlive:id">8</property>
  <property name="kdenlive:file_size">8096205</property>
  <property name="kdenlive:file_hash">1be71f73ca33f7376249380b3ac74ead</property>
  <property name="global_feed">1</property>
  <property name="xml">was here</property>
  <property name="meta.media.nb_streams">2</property>
  <property name="meta.media.0.stream.type">video</property>
  <property name="meta.media.0.stream.frame_rate">30</property>
  <property name="meta.media.0.stream.sample_aspect_ratio">0</property>
  <property name="meta.media.0.codec.width">1920</property>
  <property name="meta.media.0.codec.height">1080</property>
  <property name="meta.media.0.codec.rotate">0</property>
  <property name="meta.media.0.codec.frame_rate">30</property>
  <property name="meta.media.0.codec.pix_fmt">yuv420p</property>
  <property name="meta.media.0.codec.sample_aspect_ratio">0</property>
  <property name="meta.media.0.codec.colorspace">709</property>
  <property name="meta.media.0.codec.name">h264</property>
  <property name="meta.media.0.codec.long_name">H.264 / AVC / MPEG-4 AVC / MPEG-4 part 10</property>
  <property name="meta.media.0.codec.bit_rate">0</property>
  <property name="meta.attr.0.stream.DURATION.markup">00:03:11.633000000</property>
  <property name="meta.media.1.stream.type">audio</property>
  <property name="meta.media.1.codec.sample_fmt">fltp</property>
  <property name="meta.media.1.codec.sample_rate">44100</property>
  <property name="meta.media.1.codec.channels">2</property>
  <property name="meta.media.1.codec.name">aac</property>
  <property name="meta.media.1.codec.long_name">AAC (Advanced Audio Coding)</property>
  <property name="meta.media.1.codec.bit_rate">0</property>
  <property name="meta.attr.1.stream.title.markup">simple_aac_recording</property>
  <property name="meta.attr.1.stream.DURATION.markup">00:03:11.495000000</property>
  <property name="meta.attr.ENCODER.markup">Lavf58.45.100</property>
  <property name="meta.media.sample_aspect_num">1</property>
  <property name="meta.media.sample_aspect_den">1</property>
  <property name="meta.media.frame_rate_num">30</property>
  <property name="meta.media.frame_rate_den">1</property>
  <property name="meta.media.colorspace">709</property>
  <property name="meta.media.color_trc">2</property>
  <property name="meta.media.width">1920</property>
  <property name="meta.media.height">1080</property>
  <property name="meta.media.color_range">mpeg</property>
  <property name="set.test_audio">1</property>
  <property name="set.test_image">0</property>
  <property name="meta.media.top_field_first">0</property>
  <property name="meta.media.progressive">1</property>
 </producer>
 <producer title="Anonymous Submission" id="producer11" in="00:00:00,000" out="00:03:51,667">
  <property name="length">6951</property>
  <property name="eof">pause</property>
  <property name="resource">/home/manuel/2020-07-21 22-30-56.mkv</property>
  <property name="audio_index">1</property>
  <property name="video_index">0</property>
  <property name="mute_on_pause">0</property>
  <property name="mlt_service">avformat-novalidate</property>
  <property name="seekable">1</property>
  <property name="aspect_ratio">1</property>
  <property name="kdenlive:clipname"/>
  <property name="kdenlive:folderid">-1</property>
  <property name="kdenlive:id">9</property>
  <property name="kdenlive:file_size">13043515</property>
  <property name="kdenlive:file_hash">a1d16419ee8422a3239f222f328a264d</property>
  <property name="global_feed">1</property>
  <property name="xml">was here</property>
  <property name="meta.media.nb_streams">2</property>
  <property name="meta.media.0.stream.type">video</property>
  <property name="meta.media.0.stream.frame_rate">30</property>
  <property name="meta.media.0.stream.sample_aspect_ratio">0</property>
  <property name="meta.media.0.codec.width">1920</property>
  <property name="meta.media.0.codec.height">1080</property>
  <property name="meta.media.0.codec.rotate">0</property>
  <property name="meta.media.0.codec.frame_rate">30</property>
  <property name="meta.media.0.codec.pix_fmt">yuv420p</property>
  <property name="meta.media.0.codec.sample_aspect_ratio">0</property>
  <property name="meta.media.0.codec.colorspace">709</property>
  <property name="meta.media.0.codec.name">h264</property>
  <property name="meta.media.0.codec.long_name">H.264 / AVC / MPEG-4 AVC / MPEG-4 part 10</property>
  <property name="meta.media.0.codec.bit_rate">0</property>
  <property name="meta.attr.0.stream.DURATION.markup">00:03:51.700000000</property>
  <property name="meta.media.1.stream.type">audio</property>
  <property name="meta.media.1.codec.sample_fmt">fltp</property>
  <property name="meta.media.1.codec.sample_rate">44100</property>
  <property name="meta.media.1.codec.channels">2</property>
  <property name="meta.media.1.codec.name">aac</property>
  <property name="meta.media.1.codec.long_name">AAC (Advanced Audio Coding)</property>
  <property name="meta.media.1.codec.bit_rate">0</property>
  <property name="meta.attr.1.stream.title.markup">simple_aac_recording</property>
  <property name="meta.attr.1.stream.DURATION.markup">00:03:51.549000000</property>
  <property name="meta.attr.ENCODER.markup">Lavf58.45.100</property>
  <property name="meta.media.sample_aspect_num">1</property>
  <property name="meta.media.sample_aspect_den">1</property>
  <property name="meta.media.frame_rate_num">30</property>
  <property name="meta.media.frame_rate_den">1</property>
  <property name="meta.media.colorspace">709</property>
  <property name="meta.media.color_trc">2</property>
  <property name="meta.media.width">1920</property>
  <property name="meta.media.height">1080</property>
  <property name="meta.media.color_range">mpeg</property>
  <property name="set.test_audio">1</property>
  <property name="set.test_image">0</property>
 </producer>
 <playlist id="playlist4">
  <blank length="00:00:11,167"/>
  <entry producer="producer10" in="00:00:01,267" out="00:00:30,600">
   <property name="kdenlive:id">8</property>
  </entry>
  <entry producer="producer10" in="00:00:32,767" out="00:00:35,200">
   <property name="kdenlive:id">8</property>
  </entry>
  <entry producer="producer10" in="00:00:35,233" out="00:00:35,800">
   <property name="kdenlive:id">8</property>
  </entry>
  <entry producer="producer10" in="00:00:35,233" out="00:00:35,800">
   <property name="kdenlive:id">8</property>
  </entry>
  <entry producer="producer10" in="00:00:34,900" out="00:00:35,800">
   <property name="kdenlive:id">8</property>
  </entry>
  <entry producer="producer10" in="00:00:36,400" out="00:01:05,433">
   <property name="kdenlive:id">8</property>
  </entry>
  <entry producer="producer10" in="00:01:41,333" out="00:01:43,167">
   <property name="kdenlive:id">8</property>
  </entry>
  <entry producer="producer10" in="00:01:43,200" out="00:02:23,733">
   <property name="kdenlive:id">8</property>
  </entry>
  <entry producer="producer11" in="00:02:52,633" out="00:03:00,200">
   <property name="kdenlive:id">9</property>
  </entry>
  <entry producer="producer11" in="00:03:03,700" out="00:03:03,700">
   <property name="kdenlive:id">9</property>
  </entry>
  <entry producer="producer11" in="00:03:03,700" out="00:03:03,700">
   <property name="kdenlive:id">9</property>
  </entry>
  <entry producer="producer11" in="00:03:03,700" out="00:03:03,700">
   <property name="kdenlive:id">9</property>
  </entry>
  <entry producer="producer11" in="00:03:03,700" out="00:03:03,700">
   <property name="kdenlive:id">9</property>
  </entry>
  <entry producer="producer11" in="00:03:03,700" out="00:03:03,700">
   <property name="kdenlive:id">9</property>
  </entry>
  <entry producer="producer11" in="00:03:03,700" out="00:03:03,700">
   <property name="kdenlive:id">9</property>
  </entry>
  <entry producer="producer11" in="00:03:03,700" out="00:03:03,700">
   <property name="kdenlive:id">9</property>
  </entry>
  <entry producer="producer11" in="00:03:03,700" out="00:03:03,700">
   <property name="kdenlive:id">9</property>
  </entry>
  <entry producer="producer11" in="00:03:03,700" out="00:03:03,700">
   <property name="kdenlive:id">9</property>
  </entry>
  <entry producer="producer11" in="00:03:03,700" out="00:03:03,700">
   <property name="kdenlive:id">9</property>
  </entry>
  <entry producer="producer11" in="00:03:03,700" out="00:03:03,700">
   <property name="kdenlive:id">9</property>
  </entry>
  <entry producer="producer11" in="00:03:03,700" out="00:03:03,700">
   <property name="kdenlive:id">9</property>
  </entry>
  <entry producer="producer11" in="00:03:03,700" out="00:03:03,700">
   <property name="kdenlive:id">9</property>
  </entry>
  <entry producer="producer11" in="00:03:03,700" out="00:03:03,700">
   <property name="kdenlive:id">9</property>
  </entry>
  <entry producer="producer11" in="00:03:03,700" out="00:03:03,700">
   <property name="kdenlive:id">9</property>
  </entry>
  <entry producer="producer11" in="00:03:03,700" out="00:03:03,700">
   <property name="kdenlive:id">9</property>
  </entry>
  <entry producer="producer11" in="00:03:03,700" out="00:03:03,700">
   <property name="kdenlive:id">9</property>
  </entry>
  <entry producer="producer11" in="00:03:03,633" out="00:03:20,367">
   <property name="kdenlive:id">9</property>
  </entry>
  <entry producer="producer11" in="00:03:20,400" out="00:03:20,600">
   <property name="kdenlive:id">9</property>
  </entry>
  <entry producer="producer11" in="00:03:20,400" out="00:03:20,600">
   <property name="kdenlive:id">9</property>
  </entry>
  <entry producer="producer11" in="00:03:20,400" out="00:03:20,600">
   <property name="kdenlive:id">9</property>
  </entry>
  <entry producer="producer11" in="00:03:20,400" out="00:03:20,600">
   <property name="kdenlive:id">9</property>
  </entry>
  <entry producer="producer11" in="00:03:20,400" out="00:03:20,600">
   <property name="kdenlive:id">9</property>
  </entry>
  <entry producer="producer11" in="00:03:20,400" out="00:03:20,600">
   <property name="kdenlive:id">9</property>
  </entry>
  <entry producer="producer11" in="00:03:20,400" out="00:03:20,600">
   <property name="kdenlive:id">9</property>
  </entry>
  <entry producer="producer11" in="00:03:20,400" out="00:03:20,600">
   <property name="kdenlive:id">9</property>
  </entry>
  <entry producer="producer11" in="00:03:20,400" out="00:03:20,600">
   <property name="kdenlive:id">9</property>
  </entry>
  <entry producer="producer11" in="00:03:20,400" out="00:03:20,600">
   <property name="kdenlive:id">9</property>
  </entry>
  <entry producer="producer11" in="00:03:20,400" out="00:03:20,600">
   <property name="kdenlive:id">9</property>
  </entry>
  <entry producer="producer11" in="00:03:20,400" out="00:03:20,600">
   <property name="kdenlive:id">9</property>
  </entry>
  <entry producer="producer11" in="00:03:20,400" out="00:03:20,600">
   <property name="kdenlive:id">9</property>
  </entry>
  <entry producer="producer11" in="00:03:20,400" out="00:03:20,600">
   <property name="kdenlive:id">9</property>
  </entry>
  <entry producer="producer11" in="00:03:20,400" out="00:03:20,600">
   <property name="kdenlive:id">9</property>
  </entry>
  <entry producer="producer11" in="00:03:20,400" out="00:03:20,600">
   <property name="kdenlive:id">9</property>
  </entry>
  <entry producer="producer11" in="00:03:20,400" out="00:03:20,600">
   <property name="kdenlive:id">9</property>
  </entry>
  <entry producer="producer11" in="00:03:20,400" out="00:03:20,600">
   <property name="kdenlive:id">9</property>
  </entry>
  <entry producer="producer11" in="00:03:20,400" out="00:03:20,600">
   <property name="kdenlive:id">9</property>
  </entry>
  <entry producer="producer11" in="00:03:20,400" out="00:03:20,567">
   <property name="kdenlive:id">9</property>
  </entry>
  <entry producer="producer11" in="00:03:20,600" out="00:03:20,600">
   <property name="kdenlive:id">9</property>
  </entry>
  <entry producer="producer11" in="00:03:20,600" out="00:03:20,600">
   <property name="kdenlive:id">9</property>
  </entry>
  <entry producer="producer11" in="00:03:20,633" out="00:03:20,667">
   <property name="kdenlive:id">9</property>
  </entry>
  <entry producer="producer11" in="00:03:24,633" out="00:03:25,400">
   <property name="kdenlive:id">9</property>
  </entry>
  <entry producer="producer11" in="00:03:25,433" out="00:03:30,700">
   <property name="kdenlive:id">9</property>
  </entry>
  <entry producer="producer11" in="00:03:30,733" out="00:03:31,033">
   <property name="kdenlive:id">9</property>
  </entry>
  <entry producer="producer11" in="00:03:30,733" out="00:03:31,033">
   <property name="kdenlive:id">9</property>
  </entry>
  <entry producer="producer11" in="00:03:30,733" out="00:03:31,033">
   <property name="kdenlive:id">9</property>
  </entry>
  <entry producer="producer11" in="00:03:30,733" out="00:03:31,033">
   <property name="kdenlive:id">9</property>
  </entry>
  <entry producer="producer11" in="00:03:30,733" out="00:03:31,033">
   <property name="kdenlive:id">9</property>
  </entry>
  <entry producer="producer11" in="00:03:30,733" out="00:03:31,033">
   <property name="kdenlive:id">9</property>
  </entry>
  <entry producer="producer11" in="00:03:31,067" out="00:03:42,200">
   <property name="kdenlive:id">9</property>
  </entry>
  <entry producer="producer7" in="00:00:00,000" out="00:00:12,000">
   <property name="kdenlive:id">5</property>
  </entry>
 </playlist>
 <playlist id="playlist5"/>
 <tractor id="tractor2" in="00:00:00,000" out="00:02:57,600">
  <property name="kdenlive:trackheight">67</property>
  <property name="kdenlive:collapsed">0</property>
  <property name="kdenlive:thumbs_format"/>
  <property name="kdenlive:audio_rec"/>
  <property name="kdenlive:timeline_active">1</property>
  <track hide="audio" producer="playlist4"/>
  <track hide="both" producer="playlist5"/>
 </tractor>
 <playlist id="playlist6">
  <entry producer="producer1" in="00:00:00,000" out="00:00:09,667">
   <property name="kdenlive:id">2</property>
  </entry>
 </playlist>
 <playlist id="playlist7"/>
 <tractor id="tractor3" in="00:00:00,000" out="00:00:09,667">
  <property name="kdenlive:trackheight">69</property>
  <property name="kdenlive:collapsed">0</property>
  <property name="kdenlive:thumbs_format"/>
  <property name="kdenlive:audio_rec"/>
  <property name="kdenlive:timeline_active">1</property>
  <track hide="audio" producer="playlist6"/>
  <track hide="both" producer="playlist7"/>
 </tractor>
 <playlist id="playlist8">
  <entry producer="producer0" in="00:00:00,000" out="00:00:09,667">
   <property name="kdenlive:id">3</property>
  </entry>
 </playlist>
 <playlist id="playlist9"/>
 <tractor id="tractor4" in="00:00:00,000" out="00:00:09,667">
  <property name="kdenlive:trackheight">69</property>
  <property name="kdenlive:collapsed">0</property>
  <property name="kdenlive:thumbs_format"/>
  <property name="kdenlive:audio_rec"/>
  <property name="kdenlive:timeline_active">1</property>
  <track hide="audio" producer="playlist8"/>
  <track hide="both" producer="playlist9"/>
 </tractor>
 <tractor title="Anonymous Submission" id="tractor5" global_feed="1" in="00:00:00,000" out="00:19:37,633">
  <track producer="black_track"/>
  <track producer="tractor0"/>
  <track producer="tractor1"/>
  <track producer="tractor2"/>
  <track producer="tractor3"/>
  <track producer="tractor4"/>
  <transition id="transition0">
   <property name="a_track">0</property>
   <property name="b_track">1</property>
   <property name="mlt_service">mix</property>
   <property name="kdenlive_id">mix</property>
   <property name="internal_added">237</property>
   <property name="always_active">1</property>
   <property name="sum">1</property>
  </transition>
  <transition id="transition1">
   <property name="a_track">0</property>
   <property name="b_track">2</property>
   <property name="mlt_service">mix</property>
   <property name="kdenlive_id">mix</property>
   <property name="internal_added">237</property>
   <property name="always_active">1</property>
   <property name="sum">1</property>
  </transition>
  <transition id="transition2">
   <property name="a_track">0</property>
   <property name="b_track">3</property>
   <property name="compositing">0</property>
   <property name="distort">0</property>
   <property name="rotate_center">0</property>
   <property name="mlt_service">qtblend</property>
   <property name="kdenlive_id">qtblend</property>
   <property name="internal_added">237</property>
   <property name="always_active">1</property>
  </transition>
  <transition id="transition3">
   <property name="a_track">0</property>
   <property name="b_track">4</property>
   <property name="compositing">0</property>
   <property name="distort">0</property>
   <property name="rotate_center">0</property>
   <property name="mlt_service">qtblend</property>
   <property name="kdenlive_id">qtblend</property>
   <property name="internal_added">237</property>
   <property name="always_active">1</property>
  </transition>
  <transition id="transition4">
   <property name="a_track">0</property>
   <property name="b_track">5</property>
   <property name="compositing">0</property>
   <property name="distort">0</property>
   <property name="rotate_center">0</property>
   <property name="mlt_service">qtblend</property>
   <property name="kdenlive_id">qtblend</property>
   <property name="internal_added">237</property>
   <property name="always_active">1</property>
  </transition>
  <filter id="filter9">
   <property name="window">75</property>
   <property name="max_gain">20dB</property>
   <property name="mlt_service">volume</property>
   <property name="internal_added">237</property>
   <property name="disable">1</property>
  </filter>
  <filter id="filter10">
   <property name="channel">-1</property>
   <property name="mlt_service">panner</property>
   <property name="internal_added">237</property>
   <property name="start">0,5</property>
   <property name="disable">1</property>
  </filter>
  <filter id="filter11">
   <property name="iec_scale">0</property>
   <property name="mlt_service">audiolevel</property>
   <property name="disable">1</property>
  </filter>
 </tractor>
</mlt>
